<?xml version="1.0" standalone="no"?>
<!DOCTYPE svg PUBLIC "-//W3C//DTD SVG 20010904//EN"
 "http://www.w3.org/TR/2001/REC-SVG-20010904/DTD/svg10.dtd">
<svg version="1.0" xmlns="http://www.w3.org/2000/svg"
 width="700.000000pt" height="700.000000pt" viewBox="0 0 700.000000 700.000000"
 preserveAspectRatio="xMidYMid meet">
<metadata>
Created by potrace 1.11, written by Peter Selinger 2001-2013
</metadata>
<g transform="translate(0.000000,700.000000) scale(0.100000,-0.100000)"
fill="#000000" stroke="none">
<path d="M1127 6413 c-1 0 -22 -4 -47 -7 -25 -3 -54 -8 -65 -10 -11 -2 -24 -5
-28 -5 -5 -1 -5 -6 -1 -13 4 -6 3 -8 -4 -4 -13 8 -92 -22 -92 -36 0 -5 -4 -7
-9 -4 -8 6 -63 -31 -69 -46 -2 -5 -10 -8 -18 -8 -9 0 -12 -4 -9 -10 3 -5 2
-10 -3 -10 -5 0 -21 -11 -36 -25 -15 -14 -25 -25 -22 -25 5 0 -23 -35 -50 -64
-6 -6 -12 -15 -13 -21 -2 -5 -12 -27 -22 -47 -11 -21 -17 -38 -13 -38 4 0 2
-6 -3 -12 -10 -13 -21 -49 -30 -98 -8 -45 -8 -4820 0 -4820 5 0 5 -5 2 -10 -4
-6 -1 -34 6 -63 7 -29 12 -55 11 -60 -1 -4 3 -7 9 -7 6 0 9 -8 7 -18 -3 -10 0
-23 6 -29 26 -28 36 -43 36 -54 0 -35 144 -175 215 -209 16 -8 33 -19 37 -25
4 -5 8 -6 8 -1 0 5 6 4 13 -2 17 -14 84 -33 142 -39 52 -6 4718 -8 4815 -3 30
2 71 10 90 18 19 8 35 13 35 11 0 -7 139 65 156 81 79 71 108 103 103 111 -3
5 2 9 10 9 8 0 18 9 21 20 3 11 11 20 16 20 6 0 8 4 5 8 -3 5 5 24 17 43 13
19 23 41 22 49 0 8 3 17 7 20 4 3 10 17 12 30 2 14 5 25 6 25 13 0 20 4812 7
4885 -3 19 -8 44 -11 55 -2 11 -5 26 -5 33 -1 7 -5 10 -11 7 -5 -3 -7 0 -4 9
6 15 -45 121 -74 152 -10 11 -27 32 -36 47 -10 15 -25 27 -34 27 -8 0 -13 3
-9 6 15 15 -173 131 -193 119 -6 -3 -10 -1 -10 5 0 7 -7 9 -15 6 -9 -3 -18 0
-20 7 -3 7 -24 12 -53 12 -26 0 -51 2 -57 5 -9 4 -4744 8 -4748 3z m840 -580
c163 0 230 4 226 11 -4 7 -1 7 8 0 19 -16 418 -16 438 0 11 8 13 8 8 0 -9 -16
292 -16 312 0 11 8 13 8 8 0 -9 -16 292 -16 312 0 11 8 13 8 8 0 -9 -16 292
-16 312 0 11 8 13 8 8 0 -5 -9 63 -11 253 -11 183 0 257 4 253 11 -4 7 -2 7 8
0 19 -16 481 -15 472 0 -4 7 -1 7 8 0 19 -16 481 -15 472 0 -4 7 -1 7 8 0 19
-16 481 -15 472 0 -4 7 -1 6 8 -1 9 -7 58 -11 138 -11 83 1 125 -3 130 -11 4
-6 6 -28 4 -48 -1 -20 3 -43 10 -52 7 -8 7 -12 1 -8 -14 8 -14 -451 0 -472 6
-9 5 -12 -1 -8 -13 8 -12 -452 1 -472 6 -9 5 -12 -1 -8 -14 9 -14 -294 1 -312
7 -10 7 -13 0 -8 -14 8 -14 -451 0 -472 6 -9 5 -12 -1 -8 -13 8 -12 -452 1
-472 6 -9 5 -12 -1 -8 -14 9 -14 -294 1 -312 7 -10 7 -13 0 -8 -14 8 -14 -451
0 -472 6 -9 5 -12 -1 -8 -13 8 -12 -452 1 -472 6 -9 5 -12 -1 -8 -6 4 -9 -165
-9 -491 1 -273 0 -506 -2 -517 -3 -19 -11 -20 -277 -19 -182 1 -272 -2 -268
-9 4 -6 1 -7 -8 -1 -20 13 -640 14 -632 1 4 -6 1 -7 -8 -1 -20 13 -640 14
-632 1 4 -6 1 -7 -8 -1 -20 13 -1120 14 -1112 1 4 -6 1 -7 -8 -1 -20 13 -480
14 -472 1 4 -6 1 -7 -8 -1 -20 13 -480 14 -472 1 4 -6 1 -7 -8 -1 -8 5 -178 9
-378 10 -272 0 -366 3 -369 12 -2 7 -9 9 -14 6 -7 -5 -8 -2 -2 7 14 21 14 173
1 181 -9 6 -9 8 -1 8 16 0 16 200 1 219 -8 9 -8 12 -1 8 15 -9 15 235 0 245
-8 6 -8 8 1 8 8 0 11 38 11 130 -1 92 -4 128 -12 123 -8 -5 -8 -3 0 8 16 20
16 321 0 312 -8 -5 -8 -3 0 8 16 20 16 321 0 312 -8 -5 -8 -3 0 8 16 20 16
321 0 312 -8 -5 -8 -3 0 8 15 19 15 202 0 211 -8 6 -8 8 0 8 16 0 16 200 1
219 -8 9 -8 12 -1 8 15 -9 15 235 0 245 -8 6 -8 8 0 8 16 0 16 200 1 219 -8 9
-8 12 -1 8 15 -9 15 235 0 245 -8 6 -8 8 0 8 16 0 16 200 1 219 -8 9 -8 12 -1
8 15 -9 15 235 0 245 -8 6 -8 8 0 8 16 0 16 200 1 219 -8 9 -8 12 -1 8 15 -9
15 235 0 245 -8 6 -8 8 0 8 16 0 16 200 1 219 -8 9 -8 12 -1 8 15 -9 15 235 0
245 -7 5 -7 8 2 8 8 0 13 10 12 28 -1 15 -2 45 -1 67 l1 40 275 -1 c197 -1
272 2 268 10 -5 7 -2 7 8 0 10 -8 86 -12 246 -11z"/>
<path d="M1850 5250 c0 -3 -23 -3 -51 -1 l-52 3 5 -31 c2 -17 2 -31 -2 -31 -3
0 -3 -27 0 -60 3 -33 3 -60 0 -60 -3 0 -3 -27 0 -60 3 -33 2 -60 -2 -60 -5 0
-4 -9 2 -20 6 -11 7 -20 3 -20 -4 0 -6 -90 -3 -200 3 -110 3 -200 0 -200 -3 0
-3 -27 0 -60 3 -33 3 -60 0 -60 -3 0 -3 -63 0 -140 3 -77 3 -140 0 -140 -3 0
-3 -27 0 -60 3 -33 2 -60 -2 -60 -5 0 -4 -9 2 -20 6 -11 7 -20 3 -20 -4 0 -6
-54 -3 -120 3 -66 3 -120 0 -120 -3 0 -3 -27 0 -60 3 -33 3 -60 0 -60 -3 0 -3
-45 0 -100 3 -55 3 -100 0 -100 -3 0 -3 -27 0 -60 3 -33 3 -60 0 -60 -3 0 -3
-81 0 -180 3 -99 3 -180 0 -180 -3 0 -3 -27 0 -60 3 -33 3 -60 0 -60 -3 0 -3
-117 0 -260 3 -143 3 -260 0 -260 -3 0 -3 -27 0 -60 3 -33 3 -60 0 -60 -3 0
-3 -63 0 -140 3 -77 3 -140 0 -140 -3 0 -3 -27 -2 -59 3 -48 7 -60 23 -64 10
-3 19 -1 19 4 0 6 8 5 20 -1 14 -8 20 -8 20 0 0 8 6 8 20 0 14 -8 20 -8 20 0
0 8 6 8 20 0 12 -6 20 -7 20 -1 0 6 11 6 30 1 17 -5 30 -5 30 -1 0 4 27 4 60
1 33 -3 60 -3 60 0 0 3 40 3 90 0 50 -3 90 -1 90 3 0 4 9 3 20 -3 14 -8 20 -8
20 0 0 8 6 8 20 0 14 -8 20 -8 20 0 0 8 6 8 20 0 12 -6 20 -7 20 -1 0 6 11 6
30 1 17 -5 30 -5 30 -1 0 4 27 4 60 1 33 -3 60 -3 60 0 0 3 40 3 90 0 50 -3
90 -1 90 3 0 4 9 3 20 -3 14 -8 20 -8 20 0 0 8 6 8 20 0 14 -8 20 -8 20 0 0 8
6 8 20 0 12 -6 20 -7 20 -1 0 6 11 6 30 1 17 -5 30 -5 30 -1 0 4 27 4 60 1 33
-3 60 -3 60 0 0 3 40 3 90 0 50 -3 90 -1 90 3 0 4 9 3 20 -3 14 -8 20 -8 20 0
0 8 6 8 20 0 14 -8 20 -8 20 0 0 8 6 8 20 0 12 -6 20 -7 20 -1 0 6 11 6 30 1
17 -5 30 -5 30 -1 0 4 27 4 60 1 33 -3 60 -3 60 0 0 3 40 3 90 0 50 -3 90 -1
90 3 0 4 9 3 20 -3 14 -8 20 -8 20 0 0 8 6 8 20 0 14 -8 20 -8 20 0 0 8 6 8
20 0 12 -6 20 -7 20 -1 0 6 11 6 30 1 17 -5 30 -5 30 -1 0 4 27 4 60 1 33 -3
60 -3 60 0 0 3 40 3 90 0 50 -3 90 -1 90 3 0 4 9 3 20 -3 14 -8 20 -8 20 0 0
8 6 8 20 0 14 -8 20 -8 20 0 0 8 6 8 20 0 12 -6 20 -7 20 -1 0 6 11 6 30 1 17
-5 30 -5 30 -1 0 4 27 4 60 1 33 -3 60 -3 60 0 0 3 40 3 90 0 50 -3 90 -1 90
3 0 4 9 3 20 -3 14 -8 20 -8 20 0 0 8 6 8 20 0 14 -8 20 -8 20 0 0 8 6 8 20 0
12 -6 20 -7 20 -1 0 6 11 6 30 1 17 -5 30 -5 30 -1 0 4 27 4 60 1 33 -3 60 -3
60 0 0 3 45 3 100 0 55 -3 100 -3 100 0 0 3 19 4 41 2 29 -3 40 -1 35 7 -4 6
-2 11 4 11 8 0 8 6 0 20 -8 14 -8 20 0 20 8 0 8 6 0 20 -6 11 -7 20 -2 20 5 0
6 23 2 50 -4 28 -4 50 -1 50 3 0 4 36 1 80 -3 44 -3 80 0 80 3 0 3 36 0 80 -3
44 -3 80 0 80 3 0 3 36 0 80 -3 44 -3 80 0 80 3 0 3 36 0 80 -3 44 -3 80 0 80
3 0 3 36 0 80 -3 44 -3 80 0 80 3 0 3 36 0 80 -3 44 -3 80 0 80 3 0 3 36 0 80
-3 44 -3 80 0 80 3 0 3 36 0 80 -3 44 -3 80 0 80 3 0 3 36 0 80 -3 44 -3 80 0
80 3 0 3 36 0 80 -3 44 -3 80 0 80 3 0 3 36 0 80 -3 44 -3 80 0 80 3 0 3 36 0
80 -3 44 -3 80 0 80 3 0 3 36 0 80 -3 44 -3 80 0 80 3 0 3 36 0 80 -3 44 -3
80 0 80 3 0 3 36 0 80 -3 44 -3 80 0 80 3 0 3 36 0 80 -3 44 -3 80 0 80 3 0 3
36 0 80 -3 44 -3 80 0 80 3 0 3 36 0 80 -3 44 -3 80 0 80 3 0 3 36 0 80 -3 44
-3 80 0 80 3 0 3 36 0 80 -3 44 -3 80 0 80 3 0 3 22 2 49 -4 49 -4 49 -43 53
-21 2 -39 1 -39 -2 0 -3 -27 -3 -60 0 -33 3 -60 3 -60 0 0 -3 -90 -3 -200 0
-110 3 -200 1 -200 -3 0 -4 -9 -3 -20 3 -11 6 -20 7 -20 2 0 -4 -27 -5 -60 -2
-33 3 -60 3 -60 0 0 -3 -27 -3 -60 0 -33 3 -60 3 -60 0 0 -3 -27 -3 -60 0 -33
3 -60 3 -60 0 0 -3 -45 -3 -100 0 -55 3 -100 3 -100 0 0 -3 -27 -3 -60 0 -33
3 -60 3 -60 0 0 -9 -95 -5 -102 5 -5 6 -8 4 -8 -5 0 -13 -1 -13 -10 0 -9 13
-10 13 -10 0 0 -13 -1 -13 -10 0 -5 8 -10 11 -10 5 0 -5 -17 -11 -38 -11 -20
-1 -53 -5 -72 -9 -19 -4 -41 -8 -47 -8 -7 0 -13 -4 -13 -9 0 -4 -8 -8 -18 -8
-10 0 -27 -7 -38 -15 -12 -8 -24 -12 -26 -9 -3 2 -11 -2 -18 -11 -7 -8 -19
-15 -26 -15 -8 0 -14 -5 -14 -12 0 -6 -3 -9 -6 -5 -3 3 -16 -5 -29 -19 -12
-13 -26 -24 -30 -24 -8 0 -30 -24 -61 -65 -10 -15 -24 -32 -29 -39 -20 -21
-45 -66 -39 -66 4 0 0 -8 -9 -18 -9 -9 -18 -28 -20 -42 -9 -44 -12 -55 -19
-60 -14 -11 -20 -173 -21 -485 0 -308 0 -321 -20 -337 -11 -10 -23 -18 -27
-18 -3 0 -28 -22 -56 -49 -52 -51 -105 -111 -98 -111 2 0 -7 -18 -20 -39 -14
-21 -22 -42 -19 -45 4 -3 0 -6 -7 -6 -7 0 -11 -3 -7 -6 3 -4 0 -23 -8 -43 -19
-49 -32 -158 -24 -198 4 -22 3 -33 -5 -33 -7 0 -8 -3 -1 -8 6 -4 12 -23 13
-42 2 -19 6 -37 10 -40 4 -3 8 -14 10 -25 6 -34 54 -135 65 -135 6 0 8 -3 4
-6 -11 -12 127 -154 150 -154 8 0 12 -4 8 -9 -3 -5 11 -15 30 -22 19 -7 35
-17 35 -21 0 -4 3 -7 8 -6 4 1 21 -4 37 -11 17 -7 38 -13 48 -14 9 -1 17 -5
17 -10 0 -5 7 -7 15 -4 8 4 17 2 20 -4 4 -5 9 -7 13 -5 4 2 28 1 55 -4 28 -4
47 -3 47 3 0 5 5 5 13 -1 7 -6 18 -7 26 -2 8 4 27 7 43 5 15 -2 28 0 28 4 0 5
11 7 25 6 14 -2 25 1 25 6 0 5 6 9 14 9 8 0 25 4 38 9 13 5 27 9 32 9 5 0 12
4 15 9 3 4 23 17 44 28 43 23 150 121 160 148 4 10 12 15 17 12 6 -4 10 -3 8
2 -2 11 35 93 44 93 6 0 22 57 17 62 -1 2 3 13 9 24 20 38 29 160 17 239 -4
28 -8 56 -8 63 0 6 -4 12 -9 12 -5 0 -7 4 -4 9 3 4 -6 31 -19 60 -14 28 -25
55 -25 60 0 6 -6 14 -14 18 -8 4 -16 15 -18 23 -4 19 -103 116 -149 147 l-37
24 1 333 0 332 436 0 437 0 -1 -1165 0 -1166 -1166 0 -1165 -1 0 1166 1 1165
288 0 c247 0 288 2 291 15 8 32 1 569 -8 577 -5 4 -11 3 -13 -3 -2 -7 -17 -9
-43 -4 -22 4 -40 5 -40 1 0 -3 -90 -4 -200 -1 -110 3 -200 1 -200 -3 0 -4 -9
-3 -20 3 -11 6 -20 7 -20 2 0 -4 -27 -5 -60 -2 -33 3 -60 3 -60 0 0 -3 -63 -3
-140 0 -77 3 -140 3 -140 0 0 -3 -27 -3 -60 0 -33 3 -60 3 -60 0z"/>
</g>
</svg>
